<svg width="177" height="421" viewBox="0 0 177 421" fill="none" xmlns="http://www.w3.org/2000/svg">
<path fill-rule="evenodd" clip-rule="evenodd" d="M30 56.8121L76.5 102.192V231.229L30 185.289V56.8121ZM35 68.678V183.201L71.5 219.261V104.298L35 68.678Z" fill="black"/>
<path fill-rule="evenodd" clip-rule="evenodd" d="M148.5 56.8121V185.289L102 231.229V102.192L148.5 56.8121ZM143.5 183.201V68.678L107 104.298V219.261L143.5 183.201Z" fill="black"/>
<path fill-rule="evenodd" clip-rule="evenodd" d="M106.5 420.245H104.5H71V266.817C59.1643 255.551 41.84 238.749 27.3427 224.011C19.9376 216.482 13.2455 209.468 8.39478 203.996C5.97421 201.265 3.97685 198.878 2.57199 196.984C1.87271 196.041 1.28224 195.169 0.855378 194.406C0.641835 194.024 0.444709 193.626 0.295631 193.229C0.157167 192.859 0 192.335 0 191.745V24.5261L0.0380411 24.3106C0.612119 21.0575 3.4105 13.7613 10.4428 10.4796C17.2762 7.29064 23.0571 9.03335 25.4337 10.697L25.6077 10.8188L71 55.7526V14.693L71.0022 14.641C71.0973 12.3583 71.7389 8.93238 73.4515 5.98805C75.2154 2.95549 78.2659 0.245038 83 0.245038C84.0628 0.245038 85.169 0.200685 86.3311 0.147995L86.8104 0.12604C87.8111 0.0799797 88.8519 0.0320666 89.8789 0.0111802C92.2421 -0.0368855 94.7835 0.0474348 97.1243 0.716228C99.5356 1.40518 101.784 2.72989 103.419 5.13686C105.018 7.48903 105.864 10.631 105.999 14.6618C106.337 24.8278 106.461 43.7695 106.492 55.8437L152.886 10.8274L153.03 10.7232C154.49 9.66085 156.662 9.09226 158.894 8.9973C161.204 8.899 163.883 9.29072 166.515 10.4605C166.619 10.5066 166.759 10.5626 166.929 10.6307L166.93 10.6313C167.968 11.0473 170.126 11.912 172.024 13.6931C174.353 15.8797 176.216 19.2865 176.497 24.6136L176.5 24.6793V194.76L106.5 266.76V417.745V420.245ZM86.5576 5.14286C85.3935 5.19564 84.1872 5.24504 83 5.24504C80.5341 5.24504 78.9179 6.53459 77.7735 8.50203C76.5892 10.5381 76.0791 13.0827 76 14.7997V67.7375L22.4187 14.6975C21.2555 13.9936 17.4901 12.7085 12.5572 15.0105C7.72248 17.2667 5.50773 22.4771 5 24.9793V191.53C5.03866 191.622 5.10695 191.765 5.21933 191.966C5.49739 192.463 5.94695 193.141 6.58816 194.006C7.8643 195.727 9.74975 197.986 12.1365 200.679C16.9004 206.053 23.5207 212.995 30.9073 220.504C45.6726 235.515 63.401 252.694 75.2225 263.933L76 264.672V415.245H101.5V264.73L171.5 192.73V24.8128C171.27 20.6817 169.891 18.5486 168.601 17.3386C167.454 16.2616 166.292 15.7824 165.22 15.3403C164.969 15.2371 164.724 15.1359 164.485 15.0296C162.617 14.1994 160.713 13.9244 159.106 13.9928C157.565 14.0584 156.531 14.425 156.081 14.6944L101.5 67.6542V61.745C101.5 51.0718 101.4 26.7799 101.001 14.8283C100.886 11.3591 100.17 9.25105 99.2838 7.94696C98.4349 6.69769 97.2769 5.9599 95.7507 5.52385C94.154 5.06764 92.2267 4.96446 89.9805 5.01015C89.023 5.02962 88.0534 5.0742 87.0488 5.12038L86.5576 5.14286Z" fill="black"/>
<path fill-rule="evenodd" clip-rule="evenodd" d="M74 13C74 7.47714 78.4771 3 84 3H93C98.5229 3 103 7.47715 103 13V63.8177L147.951 18.8667C150.39 14.7557 154.873 12 160 12C167.732 12 174 18.268 174 26V181C174 183.184 173.5 185.252 172.608 187.094L173.899 188.386C175.852 190.339 175.852 193.505 173.899 195.457L103 266.357V410C103 415.523 98.5229 420 93 420H84C78.4771 420 74 415.523 74 410V265.392L5.06116 196.453C3.47675 194.869 3.17797 192.485 4.16484 190.6C3.41562 188.885 3 186.991 3 185V26C3 18.268 9.26801 12 17 12C21.2788 12 25.1093 13.9195 27.6773 16.9445C28.3181 17.4064 28.9303 17.9257 29.5069 18.5023L74 62.9954V13ZM74 104.99C73.866 104.866 73.7338 104.738 73.6033 104.608L31 62.0046V182.549L74 225.549V104.99ZM103 226.513V105.703C103.418 105.366 103.823 105.004 104.211 104.616L146 62.8269V121.913V181C146 181.791 146.066 182.567 146.192 183.322L103 226.513Z" fill="black"/>
</svg>
